<svg width="8" height="12" viewBox="0 0 8 12" fill="#9CA0A8" xmlns="http://www.w3.org/2000/svg">
<path d="M6.5 3C7.325 3 8 2.325 8 1.5C8 0.675 7.325 0 6.5 0C5.675 0 5 0.675 5 1.5C5 2.325 5.675 3 6.5 3ZM6.5 4.5C5.675 4.5 5 5.175 5 6C5 6.825 5.675 7.5 6.5 7.5C7.325 7.5 8 6.825 8 6C8 5.175 7.325 4.5 6.5 4.5ZM6.5 9C5.675 9 5 9.675 5 10.5C5 11.325 5.675 12 6.5 12C7.325 12 8 11.325 8 10.5C8 9.675 7.325 9 6.5 9Z"/>
<path d="M1.5 3C2.325 3 3 2.325 3 1.5C3 0.675 2.325 0 1.5 0C0.675 0 0 0.675 0 1.5C0 2.325 0.675 3 1.5 3ZM1.5 4.5C0.675 4.5 0 5.175 0 6C0 6.825 0.675 7.5 1.5 7.5C2.325 7.5 3 6.825 3 6C3 5.175 2.325 4.5 1.5 4.5ZM1.5 9C0.675 9 0 9.675 0 10.5C0 11.325 0.675 12 1.5 12C2.325 12 3 11.325 3 10.5C3 9.675 2.325 9 1.5 9Z"/>
</svg>
